<svg xmlns="http://www.w3.org/2000/svg"  viewBox="0 0 48 48" width="16px" height="16px"><path d="M 27.369141 1.3828125 C 27.262141 1.3918125 27.155734 1.4178906 27.052734 1.4628906 C 26.642734 1.6408906 26.401938 2.0687188 26.460938 2.5117188 L 27.457031 10 L 21.046875 3.1523438 C 20.884875 2.9793437 20.671219 2.8757031 20.449219 2.8457031 C 20.227219 2.8157031 19.995969 2.860375 19.792969 2.984375 C 19.387969 3.233375 19.214906 3.7336875 19.378906 4.1796875 L 22.75 13.392578 L 17.677734 15.066406 C 17.563734 15.103406 17.456281 15.161328 17.363281 15.236328 L 8.671875 22.230469 C 8.525875 22.347469 8.4145156 22.502688 8.3535156 22.679688 L 6.1699219 28.941406 C 6.0699219 29.226406 6.105625 29.542828 6.265625 29.798828 C 6.425625 30.055828 6.6921875 30.226672 6.9921875 30.263672 L 10.662109 30.710938 L 7.3652344 32.988281 L 6.6074219 33.511719 L 7.1308594 34.267578 L 7.4238281 34.728516 L 8.2792969 36.082031 L 14.419922 37.298828 L 14.427734 37.3125 L 14.443359 37.304688 L 14.521484 37.320312 L 14.492188 37.275391 L 17.701172 35.357422 L 15.337891 41.917969 L 22.867188 44.816406 L 23.099609 44.216797 L 22.994141 45.007812 L 38.599609 37.271484 C 39.035609 37.055484 39.339578 36.638297 39.392578 36.154297 L 40.375 27.140625 C 40.406 26.856625 40.348891 26.567406 40.212891 26.316406 L 39.105469 24.277344 L 24.091797 37.373047 L 24.013672 37.283203 L 23.28125 42.830078 L 17.882812 40.751953 L 19.847656 35.298828 L 22.953125 35.710938 L 38.126953 22.474609 L 37.222656 20.810547 L 37.949219 14.058594 C 37.978219 13.790594 37.898516 13.524406 37.728516 13.316406 L 28.224609 1.7441406 C 28.011609 1.4851406 27.690141 1.3558125 27.369141 1.3828125 z M 28.90625 5.7265625 L 35.917969 14.263672 L 35.544922 17.722656 L 34.255859 15.349609 C 33.953859 14.792609 33.333031 14.485031 32.707031 14.582031 C 29.615031 15.062031 26.186656 15.762813 25.097656 16.007812 L 24.84375 16.064453 L 18.529297 20.068359 L 21.275391 28.039062 C 22.235391 28.214063 22.974609 29.255437 22.974609 30.523438 C 22.974609 31.914437 22.087187 33.042969 20.992188 33.042969 C 19.897188 33.042969 19.011719 31.915437 19.011719 30.523438 C 19.011719 29.916438 19.18775 29.366641 19.46875 28.931641 L 16.794922 21.169922 L 14.685547 22.507812 L 11.826172 22.261719 L 18.474609 16.908203 L 24.357422 14.96875 C 24.614422 14.88475 24.825359 14.697125 24.943359 14.453125 C 25.061359 14.209125 25.075422 13.929781 24.982422 13.675781 L 22.945312 8.1074219 L 28.130859 13.646484 C 28.352859 13.884484 28.670422 13.994078 28.982422 13.955078 C 29.086422 13.942078 29.191062 13.912234 29.289062 13.865234 C 29.682063 13.679234 29.909563 13.261078 29.851562 12.830078 L 28.90625 5.7265625 z M 27.125 17.632812 C 29.025 17.632812 30.574219 21.58875 30.574219 23.84375 C 30.574219 26.09875 29.033812 27.927734 27.132812 27.927734 C 25.231813 27.927734 23.691406 26.1925 23.691406 23.9375 C 23.691406 21.6825 25.225 17.632812 27.125 17.632812 z M 26.994141 22.029297 A 0.994 1.485 0 1 0 26.994141 24.998047 A 0.994 1.485 0 1 0 26.994141 22.029297 z M 9.9746094 24.107422 L 13.410156 24.404297 L 12.316406 28.896484 L 8.4667969 28.429688 L 9.9746094 24.107422 z M 13.599609 31.115234 C 14.512609 31.262234 15.917687 31.512234 17.179688 31.740234 C 17.370687 31.774234 17.556281 31.808797 17.738281 31.841797 L 12.890625 34.736328 L 12.902344 34.757812 L 9.359375 34.042969 L 13.599609 31.115234 z"/></svg>